<svg id="Layer_1" data-name="Layer 1" xmlns="http://www.w3.org/2000/svg" viewBox="0 0 1846.51 467.44"><defs><style>.cls-1{fill:#fff;}.cls-2{fill:#989898;}.cls-3{fill:#25a7dd;}.cls-4{fill:#1b242d;}.cls-5{fill:#2276b7;}.cls-6{fill:#2ca8dd;}.cls-7{fill:#262761;}.cls-8{fill:#293d8e;}</style></defs><rect class="cls-1" width="1846.51" height="467.44"/><path class="cls-2" d="M708.8,319.4l87.83,197.76H776.3l-29.62-65.07H665.54L636.2,517.16h-21l89-197.76Zm-2.38,42L674.15,433h64.39Z" transform="translate(-116.57 -163.56)"/><path class="cls-2" d="M806.36,480.32l16-10.08q16.9,32.67,39,32.67a36,36,0,0,0,17.8-4.64,32,32,0,0,0,12.68-12.43,33.44,33.44,0,0,0,4.35-16.54q0-9.94-6.4-19.49-8.83-13.19-32.27-31.73t-29.32-27a51,51,0,0,1-10-30.25,47.64,47.64,0,0,1,5.89-23.52,43.09,43.09,0,0,1,16.58-16.74A46,46,0,0,1,864,314.43a47.8,47.8,0,0,1,24.91,6.92q11.58,6.93,24.52,25.48L898,359.06q-10.62-14.78-18.12-19.49a30.06,30.06,0,0,0-16.32-4.71q-11.4,0-18.63,7.26A24.38,24.38,0,0,0,837.73,360a31.76,31.76,0,0,0,2.57,12.51q2.55,6,9.34,13.17,3.72,3.76,24.33,19.76,24.45,19,33.55,33.75t9.09,29.71q0,21.51-15.56,37.37a51,51,0,0,1-37.84,15.86,53.57,53.57,0,0,1-31.11-9.61Q818.15,502.91,806.36,480.32Z" transform="translate(-116.57 -163.56)"/><path class="cls-2" d="M937.73,338.76V319.4h103.2v19.36h-42v178.4H979.73V338.76Z" transform="translate(-116.57 -163.56)"/><path class="cls-2" d="M1145,319.4l87.84,197.76h-20.33l-29.63-65.07h-81.14l-29.34,65.07h-21l89-197.76Zm-2.38,42L1110.38,433h64.39Z" transform="translate(-116.57 -163.56)"/><path class="cls-2" d="M1604,317.93h18.82V437.31q0,21.24.77,26.48,1.41,11.7,6.53,19.56t15.75,13.18a47.44,47.44,0,0,0,21.38,5.31,40.54,40.54,0,0,0,17.93-4.17,40.06,40.06,0,0,0,14.34-11.56,48.14,48.14,0,0,0,8.45-17.88q1.92-7.53,1.92-30.92V317.93h18.82V437.31q0,26.49-4.93,42.82T1704,508.56q-14.79,12.1-35.79,12.1-22.8,0-39-11.43A54.78,54.78,0,0,1,1607.43,479q-3.47-11.57-3.46-41.68Z" transform="translate(-116.57 -163.56)"/><path class="cls-2" d="M1852,317.93l87.83,197.76h-20.33l-29.62-65.07h-81.14l-29.34,65.07h-21l89-197.76Zm-2.38,42-32.27,71.58h64.39Z" transform="translate(-116.57 -163.56)"/><path class="cls-2" d="M1508.16,508.85l3.92,5.2-22.28,16.89-3.48-4.63c-30.56-26.13-43.89-31.41-48.61-27.4-8.4,7.13,8.58,45.19,9,45.05s-10.78-32.12-9.69-32.54h0c.93.19,10.74,15.75,7.92,24.28-5.27,15.94-58.6,19.44-101.19-.54-3.89-1.83-23.63-11.3-43.27-31.85q-43.63-45.65-43.63-110.45a166.08,166.08,0,0,1,20-80.19q20-37,54.41-57.77a143.39,143.39,0,0,1,75.55-20.78q63.42,0,107,45.54t43.55,112q0,34.65-11.94,63.38T1508.16,508.85Zm-17.65-23.43q37.31-38.15,37.3-94,0-35.72-15.81-64.57a121.28,121.28,0,0,0-44.55-46.21q-28.73-17.34-60.55-17.34-32,0-60.37,17.23a121,121,0,0,0-44.25,46.7q-15.91,29.47-15.92,65.57,0,53.44,35.13,90.25t84.82,36.81a127.42,127.42,0,0,0,21.91-1.91c8.63-1.57,10.43-1.2,11.89-2.8,6.29-6.88-4.69-23.58-.54-27.49,2.35-2.21,9.49-.28,28.88,14.86q-22.76-30.33-45.5-60.65,8.28-12.06,16.55-24.11Z" transform="translate(-116.57 -163.56)"/><path class="cls-3" d="M1525.4,464.65c-2.81-2.95-5.9-5.9-9.23-8.84-33.46-29.38-90.16-56.55-106.74-64.17l-2.34-1.05c0,.75.11,1.64.17,2.67,1.46,18.94,7.43,84.08,23,126.87,4.84,13.31,10.59,24.46,17.44,31.37s13.58,11.19,20.13,13.7c26.62,11.66,57.79.32,71.57-27C1552.2,512.89,1545.74,482.19,1525.4,464.65ZM1483.87,552c-19.45-2.34-34.42-17.87-37.68-37.15A55.48,55.48,0,0,0,1487,541.79a53.63,53.63,0,0,0,37.9-9.88C1516.25,545.72,1500.62,554,1483.87,552Z" transform="translate(-116.57 -163.56)"/><g id="logo"><ellipse class="cls-4" cx="232.19" cy="238.37" rx="220.09" ry="217.79"/><path class="cls-5" d="M442.56,392.68a226.94,226.94,0,0,0-15.92-33.28,334,334,0,0,0-23.58-35.21C336.59,372,257.72,455,348.75,538.84,322.4,450.06,378.38,410.22,442.56,392.68Z" transform="translate(-116.57 -163.56)"/><path class="cls-6" d="M403.06,324.19a447.24,447.24,0,0,0-32.13-37.54C358,273.09,348.75,265,348.75,265S241.42,358.65,245.64,445.2c4.57,93.64,103.11,93.64,103.11,93.64C257.72,455,336.59,372,403.06,324.19Z" transform="translate(-116.57 -163.56)"/><path class="cls-7" d="M348.75,538.84s73.51,0,96.49-60.34a103.23,103.23,0,0,0,6-25.74C405.89,453,365.44,474.11,348.75,538.84Z" transform="translate(-116.57 -163.56)"/><path class="cls-8" d="M450.79,424a151.14,151.14,0,0,0-8.23-31.3c-64.18,17.54-120.16,57.38-93.81,146.16,16.69-64.73,57.14-85.86,102.51-86.08.27-2.46.48-5,.61-7.56A112.08,112.08,0,0,0,450.79,424Z" transform="translate(-116.57 -163.56)"/></g></svg>